HIERARCHY
ROOT Hip
{
	OFFSET	0.0000	0.0000	0.0000
	CHANNELS 6 Xposition Yposition Zposition Xrotation Yrotation Zrotation
	JOINT LowerSpine
	{
		OFFSET	0.0000	9.5494	-5.1676
		CHANNELS 3 Xrotation Yrotation Zrotation
		JOINT MiddleSpine
		{
			OFFSET	0.0000	8.7146	0.4552
			CHANNELS 3 Xrotation Yrotation Zrotation
			JOINT Chest
			{
				OFFSET	0.0000	10.7833	-2.4002
				CHANNELS 3 Xrotation Yrotation Zrotation
				JOINT Neck
				{
					OFFSET	0.0000	24.2996	-0.5053
					CHANNELS 3 Xrotation Yrotation Zrotation
					JOINT Head
					{
						OFFSET	0.0000	13.7223	3.7325
						CHANNELS 3 Xrotation Yrotation Zrotation
						End Site
						{
							OFFSET	0.0001	19.1736	0.5724
						}
					}
				}
				JOINT LClavicle
				{
					OFFSET	2.4533	23.4504	8.0342
					CHANNELS 3 Xrotation Yrotation Zrotation
					JOINT LShoulder
					{
						OFFSET	14.3322	3.3636	-5.4426
						CHANNELS 3 Xrotation Yrotation Zrotation
						JOINT LForearm
						{
							OFFSET	30.4446	-0.1081	-0.2638
							CHANNELS 3 Xrotation Yrotation Zrotation
							JOINT LHand
							{
								OFFSET	25.3972	0.0737	-0.1521
								CHANNELS 3 Xrotation Yrotation Zrotation
								JOINT LFinger1
								{
									OFFSET	9.8432	0.8608	2.7339
									CHANNELS 3 Xrotation Yrotation Zrotation
									JOINT LFinger11
									{
										OFFSET	3.6819	-0.8978	0.6488
										CHANNELS 3 Xrotation Yrotation Zrotation
										JOINT LFinger12
										{
											OFFSET	2.5135	-0.6132	0.4431
											CHANNELS 3 Xrotation Yrotation Zrotation
											End Site
											{
												OFFSET	1.7886	-0.5339	0.2901
											}
										}
									}
								}
								JOINT LFinger2
								{
									OFFSET	9.9901	0.9941	0.2380
									CHANNELS 3 Xrotation Yrotation Zrotation
									JOINT LFinger21
									{
										OFFSET	4.5524	0.0127	-0.0269
										CHANNELS 3 Xrotation Yrotation Zrotation
										JOINT LFinger22
										{
											OFFSET	2.5233	0.0077	-0.0154
											CHANNELS 3 Xrotation Yrotation Zrotation
											End Site
											{
												OFFSET	2.2665	-0.1600	0.0030
											}
										}
									}
								}
								JOINT LFinger3
								{
									OFFSET	9.4677	0.6633	-2.2398
									CHANNELS 3 Xrotation Yrotation Zrotation
									JOINT LFinger31
									{
										OFFSET	4.1308	-0.2092	-0.2586
										CHANNELS 3 Xrotation Yrotation Zrotation
										JOINT LFinger32
										{
											OFFSET	2.3539	-0.1184	-0.1479
											CHANNELS 3 Xrotation Yrotation Zrotation
											End Site
											{
												OFFSET	2.0813	-0.2559	-0.0984
											}
										}
									}
								}
								JOINT LFinger4
								{
									OFFSET	8.7856	-0.6677	-3.8683
									CHANNELS 3 Xrotation Yrotation Zrotation
									JOINT LFinger41
									{
										OFFSET	2.5409	-0.5299	-0.7014
										CHANNELS 3 Xrotation Yrotation Zrotation
										JOINT LFinger42
										{
											OFFSET	1.8632	-0.3881	-0.5146
											CHANNELS 3 Xrotation Yrotation Zrotation
											End Site
											{
												OFFSET	1.6537	-0.4544	-0.3794
											}
										}
									}
								}
								JOINT LFinger0
								{
									OFFSET	2.0361	-1.5412	1.5436
									CHANNELS 3 Xrotation Yrotation Zrotation
									JOINT LFinger01
									{
										OFFSET	3.7911	-1.2452	2.8583
										CHANNELS 3 Xrotation Yrotation Zrotation
										JOINT LFinger02
										{
											OFFSET	2.4964	-0.8932	1.7986
											CHANNELS 3 Xrotation Yrotation Zrotation
											End Site
											{
												OFFSET	1.8357	-0.6319	1.2570
											}
										}
									}
								}
							}
						}
					}
				}
				JOINT RClavicle
				{
					OFFSET	-2.4533	23.4504	8.0342
					CHANNELS 3 Xrotation Yrotation Zrotation
					JOINT RShoulder
					{
						OFFSET	-14.3348	3.3642	-5.4436
						CHANNELS 3 Xrotation Yrotation Zrotation
						JOINT RForearm
						{
							OFFSET	-30.4446	-0.1081	-0.2638
							CHANNELS 3 Xrotation Yrotation Zrotation
							JOINT RHand
							{
								OFFSET	-25.3972	0.0737	-0.1521
								CHANNELS 3 Xrotation Yrotation Zrotation
								JOINT RFinger1
								{
									OFFSET	-9.8432	0.8608	2.7339
									CHANNELS 3 Xrotation Yrotation Zrotation
									JOINT RFinger11
									{
										OFFSET	-3.6819	-0.8978	0.6488
										CHANNELS 3 Xrotation Yrotation Zrotation
										JOINT RFinger12
										{
											OFFSET	-2.5135	-0.6132	0.4431
											CHANNELS 3 Xrotation Yrotation Zrotation
											End Site
											{
												OFFSET	-1.7886	-0.5339	0.2901
											}
										}
									}
								}
								JOINT RFinger2
								{
									OFFSET	-9.9901	0.9941	0.2380
									CHANNELS 3 Xrotation Yrotation Zrotation
									JOINT RFinger21
									{
										OFFSET	-4.5524	0.0127	-0.0269
										CHANNELS 3 Xrotation Yrotation Zrotation
										JOINT RFinger22
										{
											OFFSET	-2.5233	0.0077	-0.0154
											CHANNELS 3 Xrotation Yrotation Zrotation
											End Site
											{
												OFFSET	-2.2665	-0.1600	0.0030
											}
										}
									}
								}
								JOINT RFinger3
								{
									OFFSET	-9.4677	0.6633	-2.2398
									CHANNELS 3 Xrotation Yrotation Zrotation
									JOINT RFinger31
									{
										OFFSET	-4.1308	-0.2091	-0.2586
										CHANNELS 3 Xrotation Yrotation Zrotation
										JOINT RFinger32
										{
											OFFSET	-2.3539	-0.1184	-0.1479
											CHANNELS 3 Xrotation Yrotation Zrotation
											End Site
											{
												OFFSET	-2.0813	-0.2559	-0.0984
											}
										}
									}
								}
								JOINT RFinger4
								{
									OFFSET	-8.7856	-0.6677	-3.8683
									CHANNELS 3 Xrotation Yrotation Zrotation
									JOINT RFinger41
									{
										OFFSET	-2.5409	-0.5299	-0.7014
										CHANNELS 3 Xrotation Yrotation Zrotation
										JOINT RFinger42
										{
											OFFSET	-1.8632	-0.3881	-0.5146
											CHANNELS 3 Xrotation Yrotation Zrotation
											End Site
											{
												OFFSET	-1.6537	-0.4544	-0.3794
											}
										}
									}
								}
								JOINT RFinger0
								{
									OFFSET	-2.0361	-1.5412	1.5436
									CHANNELS 3 Xrotation Yrotation Zrotation
									JOINT RFinger01
									{
										OFFSET	-3.7911	-1.2452	2.8583
										CHANNELS 3 Xrotation Yrotation Zrotation
										JOINT RFinger02
										{
											OFFSET	-2.4964	-0.8932	1.7986
											CHANNELS 3 Xrotation Yrotation Zrotation
											End Site
											{
												OFFSET	-1.8357	-0.6319	1.2570
											}
										}
									}
								}
							}
						}
					}
				}
			}
		}
	}
	JOINT RThigh
	{
		OFFSET	-10.2155	4.3166	-0.8421
		CHANNELS 3 Xrotation Yrotation Zrotation
		JOINT RShin
		{
			OFFSET	-0.8174	-44.4328	0.0000
			CHANNELS 3 Xrotation Yrotation Zrotation
			JOINT RFoot
			{
				OFFSET	0.0000	-43.6302	0.0000
				CHANNELS 3 Xrotation Yrotation Zrotation
				JOINT RToe
				{
					OFFSET	0.0000	-4.7954	10.0277
					CHANNELS 3 Xrotation Yrotation Zrotation
					End Site
					{
						OFFSET	0.0000	0.0000	6.7272
					}
				}
			}
		}
	}
	JOINT LThigh
	{
		OFFSET	10.2154	4.3169	-0.8421
		CHANNELS 3 Xrotation Yrotation Zrotation
		JOINT LShin
		{
			OFFSET	0.8175	-44.4331	0.0000
			CHANNELS 3 Xrotation Yrotation Zrotation
			JOINT LFoot
			{
				OFFSET	0.0000	-43.6302	0.0000
				CHANNELS 3 Xrotation Yrotation Zrotation
				JOINT LToe
				{
					OFFSET	0.0000	-4.7954	10.0278
					CHANNELS 3 Xrotation Yrotation Zrotation
					End Site
					{
						OFFSET	0.0000	0.0000	6.7272
					}
				}
			}
		}
	}
}
MOTION
Frames:	4
Frame Time: 0.0333333000
	-25.2724	39.7724	95.0295	136.726600	32.639200	-125.846900	0.000000	0.000000	0.000000	-0.095585	0.253760	3.584236	-0.368473	0.782781	11.936520	0.000000	0.000000	0.000000	0.000000	0.000000	0.000000	0.000000	0.000000	-2.239568	-18.755200	-26.319190	-17.259570	-17.730950	-115.751700	0.450861	0.000000	0.000000	0.000000	0.000000	0.000000	0.000000	0.000000	0.000000	0.000000	0.000000	0.000000	0.000000	0.000000	0.000000	0.000000	0.000000	0.000000	0.000000	0.000000	0.000000	0.000000	0.000000	0.000000	0.000000	0.000000	0.000000	0.000000	0.000000	0.000000	0.000000	0.000000	0.000000	0.000000	0.000000	0.000000	0.000000	0.000000	0.000000	0.000000	0.000000	0.000000	0.000000	0.000000	0.000000	0.000000	0.000000	0.000000	0.000000	0.000000	0.000000	-0.950290	-88.962780	62.542670	84.551020	-28.798880	36.985430	-0.130373	0.000000	0.000000	0.000000	0.000000	0.000000	0.000000	0.000000	0.000000	0.000000	0.000000	0.000000	0.000000	0.000000	0.000000	0.000000	0.000000	0.000000	0.000000	0.000000	0.000000	0.000000	0.000000	0.000000	0.000000	0.000000	0.000000	0.000000	0.000000	0.000000	0.000000	0.000000	0.000000	0.000000	0.000000	0.000000	0.000000	0.000000	0.000000	0.000000	0.000000	0.000000	0.000000	0.000000	0.000000	0.000000	0.000000	0.000000	0.000000	-65.025140	15.643390	-25.514990	138.421900	0.984973	3.327487	1.705703	6.844475	3.152210	14.193750	0.000000	0.000000	-116.054900	-12.064760	26.315090	103.998900	-8.257704	-34.737590	-8.878805	-8.021010	-4.627232	-0.000001	0.000000	0.000000
	-25.4762	39.9133	94.4780	134.612100	33.645630	-124.208900	0.000000	0.000000	0.000000	-0.089242	0.199291	3.691700	-0.344132	0.631821	12.304530	0.000000	0.000000	0.000000	0.000000	0.000000	0.000000	0.000000	0.000000	-2.359150	-18.647070	-23.960430	-17.010560	-18.315260	-117.994400	0.372341	0.000000	0.000000	0.000000	0.000000	0.000000	0.000000	0.000000	0.000000	0.000000	0.000000	0.000000	0.000000	0.000000	0.000000	0.000000	0.000000	0.000000	0.000000	0.000000	0.000000	0.000000	0.000000	0.000000	0.000000	0.000000	0.000000	0.000000	0.000000	0.000000	0.000000	0.000000	0.000000	0.000000	0.000000	0.000000	0.000000	0.000000	0.000000	0.000000	0.000000	0.000000	0.000000	0.000000	0.000000	0.000000	0.000000	0.000000	0.000000	0.000000	0.000000	-0.711257	-93.003820	63.128840	89.685210	-28.031460	36.919450	-0.125038	0.000000	0.000000	0.000000	0.000000	0.000000	0.000000	0.000000	0.000000	0.000000	0.000000	0.000000	0.000000	0.000000	0.000000	0.000000	0.000000	0.000000	0.000000	0.000000	0.000000	0.000000	0.000000	0.000000	0.000000	0.000000	0.000000	0.000000	0.000000	0.000000	0.000000	0.000000	0.000000	0.000000	0.000000	0.000000	0.000000	0.000000	0.000000	0.000000	0.000000	0.000000	0.000000	0.000000	0.000000	0.000000	0.000000	0.000000	0.000000	-65.714840	16.175890	-24.708320	137.906800	0.316672	2.758969	1.679261	6.207433	2.860870	14.168750	0.000000	0.000000	-115.210000	-13.629910	28.547500	104.654700	-9.275759	-36.190120	-8.581572	-9.534257	-5.474423	-0.000001	0.000000	0.000000
	-25.6736	39.8837	93.8962	133.049200	34.458720	-122.895400	0.000000	0.000000	0.000000	-0.104350	0.068887	3.794639	-0.363797	0.201749	12.648720	0.000000	0.000000	0.000000	0.000000	0.000000	0.000000	0.000000	0.000000	-2.493368	-19.159260	-21.584660	-17.089780	-19.457820	-120.972500	0.302577	0.000000	0.000000	0.000000	0.000000	0.000000	0.000000	0.000000	0.000000	0.000000	0.000000	0.000000	0.000000	0.000000	0.000000	0.000000	0.000000	0.000000	0.000000	0.000000	0.000000	0.000000	0.000000	0.000000	0.000000	0.000000	0.000000	0.000000	0.000000	0.000000	0.000000	0.000000	0.000000	0.000000	0.000000	0.000000	0.000000	0.000000	0.000000	0.000000	0.000000	0.000000	0.000000	0.000000	0.000000	0.000000	0.000000	0.000000	0.000000	0.000000	0.000000	-0.583064	-97.038790	63.840760	94.497510	-27.079860	36.432750	-0.126902	0.000000	0.000000	0.000000	0.000000	0.000000	0.000000	0.000000	0.000000	0.000000	0.000000	0.000000	0.000000	0.000000	0.000000	0.000000	0.000000	0.000000	0.000000	0.000000	0.000000	0.000000	0.000000	0.000000	0.000000	0.000000	0.000000	0.000000	0.000000	0.000000	0.000000	0.000000	0.000000	0.000000	0.000000	0.000000	0.000000	0.000000	0.000000	0.000000	0.000000	0.000000	0.000000	0.000000	0.000000	0.000000	0.000000	0.000000	0.000000	-66.442000	16.917760	-24.502320	137.734100	-0.185911	2.309471	2.761756	6.683804	3.001033	13.650000	0.000000	0.000000	-114.456200	-14.910350	30.457660	105.600800	-10.474140	-37.341870	-7.953550	-9.928052	-5.633676	-0.000001	0.000000	0.000000
	-25.9197	39.7939	93.4159	131.883300	35.174180	-121.874300	0.000000	0.000000	0.000000	-0.047802	-0.110961	3.847327	-0.129321	-0.380342	12.824580	0.000000	0.000000	0.000000	0.000000	0.000000	0.000000	0.000000	0.000000	-2.521720	-20.014940	-19.115330	-16.789200	-20.785680	-123.472100	0.331510	0.000000	0.000000	0.000000	0.000000	0.000000	0.000000	0.000000	0.000000	0.000000	0.000000	0.000000	0.000000	0.000000	0.000000	0.000000	0.000000	0.000000	0.000000	0.000000	0.000000	0.000000	0.000000	0.000000	0.000000	0.000000	0.000000	0.000000	0.000000	0.000000	0.000000	0.000000	0.000000	0.000000	0.000000	0.000000	0.000000	0.000000	0.000000	0.000000	0.000000	0.000000	0.000000	0.000000	0.000000	0.000000	0.000000	0.000000	0.000000	0.000000	0.000000	-0.632352	-100.592500	64.604970	98.254140	-26.175000	36.260820	-0.114885	0.000000	0.000000	0.000000	0.000000	0.000000	0.000000	0.000000	0.000000	0.000000	0.000000	0.000000	0.000000	0.000000	0.000000	0.000000	0.000000	0.000000	0.000000	0.000000	0.000000	0.000000	0.000000	0.000000	0.000000	0.000000	0.000000	0.000000	0.000000	0.000000	0.000000	0.000000	0.000000	0.000000	0.000000	0.000000	0.000000	0.000000	0.000000	0.000000	0.000000	0.000000	0.000000	0.000000	0.000000	0.000000	0.000000	0.000000	0.000000	-67.399570	17.512520	-24.340710	137.692400	-0.484288	2.040963	4.193031	7.593174	3.295844	15.247070	0.000000	0.000000	-113.711000	-15.858390	32.027940	106.391300	-11.489830	-38.215940	-8.056283	-10.614160	-6.032288	-0.000001	0.000000	0.000000
